# xmcd CD database file
#
# Track frame offsets:
#	155
#	12306
#	23171
#	34270
#	44625
#	55862
#	64607
#	79505
#	95003
#	116532
#	134257
#	148133
#	166563
#	181321
#	199936
#	204045
#	218981
#
# Disc length: 3186 seconds
#
# Revision: 0
# Processed by: cddbd v1.5.2PL0 Copyright (c) Steve Scherf et al.
# Submitted via: CDex 1.70beta2
#
DISCID=ea0c7011
DTITLE=Canadian Brass - Swing that music, A Tribute to Louis Armstrong
DYEAR=2009
DGENRE=Jazz
TTITLE0=Louis Armstrong and Chris Dedrick - Swing That Music 
TTITLE1=JP Johnson and Luther Henderson - Carolina Shout
TTITLE2=Eric Robertson - Promenade
TTITLE3=Luther Henderson based on BACH Prelude No 2 - BeBop Bach
TTITLE4=Luther Henderson based on BACH Prelude No8 - Cool Bach
TTITLE5=Luther Henderson based on BACH Fugue No 2 - Dixie Bach
TTITLE6=Lil Hardin-Armstrong - Struttin' With Some Barbeque
TTITLE7=Bernie Pinkard and Casey - Sweet Georgia Brown 
TTITLE8=WC Handy - St. Louis Blues
TTITLE9=Waller, Razaf and Brooks - Black And Blue
TTITLE10=Chris Dedrick - Way Down Yonder In New Orleans
TTITLE11=Jelly Roll Morton - Black Bottom Stomp
TTITLE12=George Gershwin - Strike Up The Band
TTITLE13=George Gershwin - Sleepless Night
TTITLE14=George Gershwin - Three-Quarter Blues
TTITLE15=Waller, Razaf and Brooks  - Ain't Misbehavin'
TTITLE16=Eric Robertson - Blueberry Hill
EXTD=YEAR: 2009
EXTT0=
EXTT1=
EXTT2=
EXTT3=
EXTT4=
EXTT5=
EXTT6=
EXTT7=
EXTT8=
EXTT9=
EXTT10=
EXTT11=
EXTT12=
EXTT13=
EXTT14=
EXTT15=
EXTT16=
PLAYORDER=
